<mxfile host="65bd71144e">
    <diagram id="xEz1rf1Twpv8RbMiKMq-" name="Page-1">
        <mxGraphModel dx="1123" dy="1080" grid="0" gridSize="10" guides="1" tooltips="1" connect="1" arrows="1" fold="1" page="0" pageScale="1" pageWidth="850" pageHeight="1100" math="0" shadow="0">
            <root>
                <mxCell id="0"/>
                <mxCell id="1" parent="0"/>
                <mxCell id="32" value="" style="shape=ext;double=1;rounded=1;whiteSpace=wrap;html=1;labelBackgroundColor=#171717;labelBorderColor=none;sketch=1;fontColor=default;" parent="1" vertex="1">
                    <mxGeometry x="-44" y="-5" width="740" height="617" as="geometry"/>
                </mxCell>
                <mxCell id="5" value="" style="group;sketch=1;rounded=1;" parent="1" vertex="1" connectable="0">
                    <mxGeometry x="10" y="40" width="233" height="120" as="geometry"/>
                </mxCell>
                <mxCell id="2" value="Actor" style="shape=umlActor;verticalLabelPosition=bottom;verticalAlign=top;outlineConnect=0;sketch=1;rounded=1;" parent="5" vertex="1">
                    <mxGeometry x="203" y="15" width="30" height="60" as="geometry"/>
                </mxCell>
                <mxCell id="4" value="Default&#10;Such users could only manage their own accounts. All new user of the system belonts to these group." style="text;strokeColor=none;fillColor=none;spacing=5;spacingTop=-20;whiteSpace=wrap;overflow=hidden;rounded=1;align=right;sketch=1;" parent="5" vertex="1">
                    <mxGeometry width="190" height="120" as="geometry"/>
                </mxCell>
                <mxCell id="6" value="" style="group;sketch=1;rounded=1;" parent="1" vertex="1" connectable="0">
                    <mxGeometry x="10" y="186" width="233" height="120" as="geometry"/>
                </mxCell>
                <mxCell id="7" value="Actor" style="shape=umlActor;verticalLabelPosition=bottom;verticalAlign=top;outlineConnect=0;sketch=1;rounded=1;" parent="6" vertex="1">
                    <mxGeometry x="203" y="15" width="30" height="60" as="geometry"/>
                </mxCell>
                <mxCell id="8" value="Manager&#10;This is a special role inside the platform. Such users works on registration of the initial applications and roles definitions." style="text;strokeColor=none;fillColor=none;spacing=5;spacingTop=-20;whiteSpace=wrap;overflow=hidden;rounded=1;align=right;sketch=1;" parent="6" vertex="1">
                    <mxGeometry width="190" height="120" as="geometry"/>
                </mxCell>
                <mxCell id="9" value="" style="group;sketch=1;rounded=1;" parent="1" vertex="1" connectable="0">
                    <mxGeometry x="10" y="331" width="233" height="120" as="geometry"/>
                </mxCell>
                <mxCell id="10" value="Actor" style="shape=umlActor;verticalLabelPosition=bottom;verticalAlign=top;outlineConnect=0;sketch=1;rounded=1;" parent="9" vertex="1">
                    <mxGeometry x="203" y="15" width="30" height="60" as="geometry"/>
                </mxCell>
                <mxCell id="11" value="Staff&#10;Staffs works around the system maintenance. Such group of users has the higher permission level around the application. Thus, be carefull." style="text;strokeColor=none;fillColor=none;spacing=5;spacingTop=-20;whiteSpace=wrap;overflow=hidden;rounded=1;align=right;sketch=1;" parent="9" vertex="1">
                    <mxGeometry width="190" height="120" as="geometry"/>
                </mxCell>
                <mxCell id="19" value="- Create and manage your own account.&#10;- Guest and manage other users to work at the account management." style="text;strokeColor=none;fillColor=none;whiteSpace=wrap;verticalAlign=middle;overflow=hidden;labelBackgroundColor=none;labelBorderColor=none;fontColor=default;spacingRight=3;sketch=1;rounded=1;" parent="1" vertex="1">
                    <mxGeometry x="371" y="42" width="267" height="86" as="geometry"/>
                </mxCell>
                <mxCell id="21" value="" style="edgeStyle=orthogonalEdgeStyle;entryX=0;entryY=0.5;entryDx=0;entryDy=0;fontColor=default;sketch=1;curved=1;" parent="1" source="2" target="19" edge="1">
                    <mxGeometry relative="1" as="geometry"/>
                </mxCell>
                <mxCell id="22" value="- Perform initial registration and further management of the roles available in the application.&#10;- Register sub-types of default users (default user should exists into subgroups, like, single account admin, account observers [with read only permissions], etc]." style="text;strokeColor=none;fillColor=none;whiteSpace=wrap;verticalAlign=middle;overflow=hidden;labelBackgroundColor=none;labelBorderColor=none;fontColor=default;spacingRight=3;sketch=1;rounded=1;" parent="1" vertex="1">
                    <mxGeometry x="371" y="160" width="267" height="156" as="geometry"/>
                </mxCell>
                <mxCell id="23" value="" style="edgeStyle=orthogonalEdgeStyle;entryX=0;entryY=0.5;entryDx=0;entryDy=0;fontColor=default;sketch=1;curved=1;" parent="1" source="7" target="22" edge="1">
                    <mxGeometry relative="1" as="geometry"/>
                </mxCell>
                <mxCell id="25" value="" style="group;sketch=1;rounded=1;" parent="1" vertex="1" connectable="0">
                    <mxGeometry x="10" y="487" width="233" height="120" as="geometry"/>
                </mxCell>
                <mxCell id="26" value="Actor" style="shape=umlActor;verticalLabelPosition=bottom;verticalAlign=top;outlineConnect=0;sketch=1;rounded=1;" parent="25" vertex="1">
                    <mxGeometry x="203" y="15" width="30" height="60" as="geometry"/>
                </mxCell>
                <mxCell id="27" value="Applications&#10;Applications are not human users, but the services that should manage the identities based on Mycelium system." style="text;strokeColor=none;fillColor=none;spacing=5;spacingTop=-20;whiteSpace=wrap;overflow=hidden;rounded=1;align=right;sketch=1;" parent="25" vertex="1">
                    <mxGeometry width="190" height="120" as="geometry"/>
                </mxCell>
                <mxCell id="28" value="- Perform initial registration and management of the Applications which the Mycelium are manage permissions.&#10;- Perform maintenance operations at the Mycelium level." style="text;strokeColor=none;fillColor=none;whiteSpace=wrap;verticalAlign=middle;overflow=hidden;labelBackgroundColor=none;labelBorderColor=none;fontColor=default;spacingRight=3;sketch=1;rounded=1;" parent="1" vertex="1">
                    <mxGeometry x="371" y="341" width="267" height="106" as="geometry"/>
                </mxCell>
                <mxCell id="29" value="- Provide profile and permissions. Use-cases, endpoints, and other features available for applications should be accessed by application guards, route guards or application gateways." style="text;strokeColor=none;fillColor=none;whiteSpace=wrap;verticalAlign=middle;overflow=hidden;labelBackgroundColor=none;labelBorderColor=none;fontColor=default;spacingRight=3;sketch=1;rounded=1;" parent="1" vertex="1">
                    <mxGeometry x="371" y="485.5" width="267" height="93" as="geometry"/>
                </mxCell>
                <mxCell id="30" value="" style="edgeStyle=orthogonalEdgeStyle;fontColor=default;sketch=1;curved=1;" parent="1" source="10" target="28" edge="1">
                    <mxGeometry relative="1" as="geometry"/>
                </mxCell>
                <mxCell id="31" value="" style="edgeStyle=orthogonalEdgeStyle;entryX=0;entryY=0.5;entryDx=0;entryDy=0;fontColor=default;sketch=1;curved=1;" parent="1" source="26" target="29" edge="1">
                    <mxGeometry relative="1" as="geometry"/>
                </mxCell>
            </root>
        </mxGraphModel>
    </diagram>
</mxfile>